<?xml version="1.0" encoding="UTF-8"?>
<svg version="1.1" xmlns="http://www.w3.org/2000/svg" width="512" height="512">
<path d="M0 0 C2.67388553 2.653599 4.86665885 5.57055201 7.07006836 8.61230469 C7.54457932 9.26396103 8.01909027 9.91561737 8.50798035 10.58702087 C14.77017739 19.27263953 20.60926792 28.24245735 26.46850586 37.20214844 C27.67305169 39.03865647 28.87772391 40.87508161 30.08251953 42.71142578 C43.14126954 62.6354175 55.88987018 82.71602247 68.15600586 103.13964844 C68.70111816 104.04682617 69.24623047 104.95400391 69.80786133 105.88867188 C84.15900199 129.83166834 97.59014498 154.21848782 110.15600586 179.13964844 C110.6679248 180.15269043 111.17984375 181.16573242 111.70727539 182.20947266 C119.52952921 197.79876438 126.0590793 213.8044867 132.15600586 230.13964844 C132.64157959 231.4211377 132.64157959 231.4211377 133.13696289 232.72851562 C148.25258357 273.0084513 146.25700699 316.00084454 128.96850586 355.26464844 C122.49922678 369.39262563 114.50498431 382.52496759 104.15600586 394.13964844 C103.43928711 394.96464844 102.72256836 395.78964844 101.98413086 396.63964844 C99.74682881 399.1784309 97.46502487 401.66597301 95.15600586 404.13964844 C94.34776367 405.01363281 93.53952148 405.88761719 92.70678711 406.78808594 C61.40931159 439.44225322 16.74077141 455.37491693 -27.84399414 456.38964844 C-77.25680002 455.26503266 -120.91311009 435.77792521 -155.09399414 400.22558594 C-175.92062163 377.90680679 -189.39519074 349.82164086 -195.84399414 320.13964844 C-196.00770508 319.40520508 -196.17141602 318.67076172 -196.34008789 317.9140625 C-210.90719546 249.9843894 -168.91026218 179.25264776 -135.45922852 122.87792969 C-133.53269022 119.61189984 -131.64770683 116.32343642 -129.76635742 113.03125 C-124.9408783 104.6007366 -119.92842406 96.29137656 -114.84399414 88.01464844 C-114.2157373 86.99064941 -113.58748047 85.96665039 -112.94018555 84.91162109 C-107.37723045 75.89903613 -101.62728808 67.01190225 -95.84399414 58.13964844 C-95.28879089 57.28763855 -94.73358765 56.43562866 -94.16156006 55.55780029 C-90.50878078 49.95612537 -86.84509506 44.36171477 -83.17333984 38.77246094 C-81.90828475 36.84475793 -80.64527478 34.91571131 -79.38427734 32.98535156 C-54.29813059 -5.41029069 -54.29813059 -5.41029069 -33.96899414 -9.67285156 C-21.85333097 -10.62166856 -9.51493301 -7.93324002 0 0 Z " fill="#FEA81A" transform="translate(283.843994140625,32.8603515625)"/>
<path d="M0 0 C0.66 0 1.32 0 2 0 C2.804375 1.60875 2.804375 1.60875 3.625 3.25 C6.16209928 7.69442215 9.45939933 10.19770505 14.375 11.75 C15.179375 11.87375 15.179375 11.87375 16 12 C14.60177071 16.38777667 12.92766664 20.57670042 11.125 24.8125 C7.76706426 33.01258727 5.68072819 41.3148371 4 50 C3.773125 51.14210938 3.54625 52.28421875 3.3125 53.4609375 C-0.8828345 78.92428716 3.09952834 103.28956134 9 128 C10.39847168 127.9685791 10.39847168 127.9685791 11.82519531 127.93652344 C44.82728594 127.26567154 76.67625518 130.12317241 109 137 C109.93827637 137.19706543 110.87655273 137.39413086 111.84326172 137.59716797 C125.22605937 140.45454397 138.10291448 144.44425413 151 149 C148.99447195 157.99441842 140.12056143 165.45563158 134 172 C133.18917969 172.8765625 132.37835938 173.753125 131.54296875 174.65625 C100.25183297 207.30786995 55.5765966 223.23545442 11 224.25 C-38.67362166 223.11944816 -81.8848056 203.4813772 -116.3359375 167.96875 C-121.34502484 162.6548976 -125.76715549 156.94226248 -130 151 C-128.69042896 148.38085791 -127.74720048 148.36792771 -125.01171875 147.44921875 C-124.1705249 147.1653833 -123.32933105 146.88154785 -122.46264648 146.58911133 C-121.54684814 146.29157959 -120.6310498 145.99404785 -119.6875 145.6875 C-118.27029663 145.22283325 -118.27029663 145.22283325 -116.82446289 144.7487793 C-107.32136724 141.69073895 -97.73256057 139.20500266 -88 137 C-87.24557617 136.8237207 -86.49115234 136.64744141 -85.71386719 136.46582031 C-74.18575576 133.80241182 -62.54574421 132.18887788 -50.8125 130.75 C-50.09526764 130.66096405 -49.37803528 130.5719281 -48.6390686 130.48019409 C-41.07393916 129.55077041 -33.6327253 128.76227329 -26 129 C-26.28875 128.06929687 -26.5775 127.13859375 -26.875 126.1796875 C-30.09259592 114.41526289 -30.39611721 102.85983968 -30.375 90.75 C-30.3764502 89.93883728 -30.37790039 89.12767456 -30.37939453 88.29193115 C-30.37658524 74.36102322 -29.60951574 60.64768074 -25.4375 47.25 C-25.05331909 46.00174438 -25.05331909 46.00174438 -24.66137695 44.72827148 C-20.00779306 30.25484838 -13.24689973 17.05809869 -4 5 C-3.29488281 4.05898438 -2.58976562 3.11796875 -1.86328125 2.1484375 C-1.24839844 1.43945312 -0.63351563 0.73046875 0 0 Z " fill="#76A24E" transform="translate(245,265)"/>
<path d="M0 0 C1.2480109 1.1464862 2.47960607 2.31132256 3.6875 3.5 C5.61903777 5.26276263 6.51904505 5.95085132 9.140625 6.21875 C12.80899705 5.86938123 16.17841808 4.95049132 19.73046875 3.96484375 C38.45881926 -0.71016383 59.36057002 5.39706844 75.7890625 14.5546875 C87.0784933 21.45555083 96.48149547 29.90626034 105 40 C105.58394531 40.68578125 106.16789063 41.3715625 106.76953125 42.078125 C108.95426455 44.84665755 110.04160821 46.34813807 109.8125 49.9375 C109.544375 50.618125 109.27625 51.29875 109 52 C104.15703341 52.58403122 101.46886028 50.63029505 97.6875 47.9375 C82.02627394 37.40577826 63.13411634 30.20433677 44 32 C43.01 32.33 42.02 32.66 41 33 C41.30395046 36.25339563 41.66518227 37.67287923 44.0390625 39.9921875 C44.89242187 40.61351562 45.74578125 41.23484375 46.625 41.875 C64.38171305 55.46252724 77.52316521 75.91387895 81.55859375 98.06640625 C82.13051728 103.16310528 82.14518665 108.18845415 82.125 113.3125 C82.12886719 114.31345703 82.13273438 115.31441406 82.13671875 116.34570312 C82.13478516 117.7775293 82.13478516 117.7775293 82.1328125 119.23828125 C82.13168457 120.10493408 82.13055664 120.97158691 82.12939453 121.86450195 C82 124 82 124 81 126 C78.82421875 126.04296875 78.82421875 126.04296875 76 125 C73.89881264 122.31652699 72.39741003 119.32132793 70.8125 116.3125 C69.84376253 114.56350431 68.86974163 112.81742523 67.890625 111.07421875 C67.40529297 110.20974121 66.91996094 109.34526367 66.41992188 108.45458984 C54.15148418 87.24639305 35.56369414 69.53406896 14 58 C17 57 17 57 20.1875 57.1875 C24.9215305 56.95467883 28.14737469 55.73871408 32 53 C35.75645996 48.28034518 37.44087714 44.28708774 37.33984375 38.19140625 C36.60482844 33.45182477 33.97584 29.74540705 30.42578125 26.609375 C25.92155993 23.62755948 21.27469052 22.95049039 16 24 C10.94785701 26.14386589 7.23792561 28.86593536 5 34 C4.30420546 36.19130534 4.30420546 36.19130534 4 38 C3.195625 37.835 2.39125 37.67 1.5625 37.5 C-2.65887352 36.90752652 -6.74664545 36.91493291 -11 37 C-11.37125 35.783125 -11.7425 34.56625 -12.125 33.3125 C-13.83677248 28.71516819 -15.98563747 26.75987424 -20 24 C-25.8008561 22.0663813 -31.8981746 22.00640981 -37.4375 24.625 C-40.94112482 27.87226202 -43.62694262 30.46404812 -44.34765625 35.36328125 C-44.54541119 41.0293902 -43.60159183 44.99693879 -41 50 C-40.33143738 51.33238367 -39.66435487 52.66551327 -39 54 C-39.94359375 54.47308594 -40.8871875 54.94617188 -41.859375 55.43359375 C-64.79477165 67.15205882 -80.23338134 83.30856872 -91.2734375 106.46875 C-92.71929378 109.42588592 -94.25332879 112.21389869 -96 115 C-100.875 114.125 -100.875 114.125 -102 113 C-103.60703935 87.38190206 -94.2845568 63.81128847 -77.5625 44.6875 C-66.22070748 32.71230895 -53.84065884 23.16671287 -39 16 C-39 14.68 -39 13.36 -39 12 C-58.82611896 5.55528143 -77.0904478 3.82718744 -97.875 3.9375 C-99.54557156 3.94253086 -101.2161446 3.94709093 -102.88671875 3.95117188 C-106.92451682 3.96203841 -110.96224132 3.97921319 -115 4 C-115.33 2.35 -115.66 0.7 -116 -1 C-83.94053107 -25.50073236 -32.22639906 -22.38510948 0 0 Z " fill="#77A24E" transform="translate(269,207)"/>
<path d="M0 0 C7.96774748 2.08679101 12.41899755 7.04050412 17.04296875 13.55859375 C17.74077705 14.52677284 17.74077705 14.52677284 18.4526825 15.51451111 C24.65125094 24.19703624 30.47474152 33.13565437 36.3125 42.0625 C37.51704583 43.89900803 38.72171805 45.73543317 39.92651367 47.57177734 C52.98526368 67.49576906 65.73386432 87.57637403 78 108 C78.5451123 108.90717773 79.09022461 109.81435547 79.65185547 110.74902344 C94.00299613 134.6920199 107.43413912 159.07883938 120 184 C120.51191895 185.01304199 121.02383789 186.02608398 121.55126953 187.06982422 C129.37352335 202.65911594 135.90307344 218.66483826 142 235 C142.32371582 235.85432617 142.64743164 236.70865234 142.98095703 237.58886719 C158.10017874 277.87839885 156.08979332 320.85083653 138.8125 360.125 C134.36486826 369.91326908 128.82673846 378.98216925 123 388 C122.67 387.34 122.34 386.68 122 386 C120.00156931 385.25584883 120.00156931 385.25584883 117.5 384.6875 C112.23470336 383.33813732 107.02289577 381.85743027 101.8125 380.3125 C101.04550781 380.0858667 100.27851563 379.8592334 99.48828125 379.62573242 C97.65856079 379.08481302 95.82923699 378.54255212 94 378 C94.85248395 376.70722214 95.70713073 375.41587059 96.5625 374.125 C97.27599609 373.04605469 97.27599609 373.04605469 98.00390625 371.9453125 C99.17107251 370.22311415 100.35260709 368.51020389 101.56811523 366.82177734 C116.09132099 346.55358837 126.05820836 322.65842592 130 298 C130.20238281 296.80375 130.40476562 295.6075 130.61328125 294.375 C136.73602241 253.05691002 122.33892377 214.84661042 105 178 C104.52336914 176.97132813 104.04673828 175.94265625 103.55566406 174.8828125 C91.47511383 148.81469312 77.7179411 123.66359082 63 99 C62.38237793 97.95972656 61.76475586 96.91945313 61.12841797 95.84765625 C53.47258786 82.95444913 45.69215469 70.15368259 37.61035156 57.52294922 C35.85433993 54.77179333 34.11055169 52.01309254 32.3671875 49.25390625 C24.15285614 36.29234487 15.69684457 23.52403426 7.03100586 10.86157227 C6.63581757 10.28362915 6.24062927 9.70568604 5.83346558 9.11022949 C4.75841616 7.53932385 3.68116084 5.96992846 2.60375977 4.40063477 C1 2 1 2 0 0 Z " fill="#F79218" transform="translate(274,28)"/>
<path d="M0 0 C6.73432123 0.56384057 12.63458974 2.34558126 19 4.5625 C20.44826172 5.0565332 20.44826172 5.0565332 21.92578125 5.56054688 C24.28629806 6.36686202 26.64416717 7.18012163 29 8 C26.99447195 16.99441842 18.12056143 24.45563158 12 31 C11.18917969 31.8765625 10.37835938 32.753125 9.54296875 33.65625 C-21.74816703 66.30786995 -66.4234034 82.23545442 -111 83.25 C-157.39652669 82.19403353 -199.94318165 65.02019685 -233 32.3125 C-233.51079102 31.80734863 -234.02158203 31.30219727 -234.54785156 30.78173828 C-238 27.25802387 -238 27.25802387 -238 25 C-233.15462168 27.20031673 -229.00339896 30.44991272 -224.6796875 33.515625 C-208.60411218 44.55759349 -190.01743512 52.64038526 -171 57 C-170.17161621 57.19319824 -169.34323242 57.38639648 -168.48974609 57.58544922 C-146.73958249 62.46618753 -123.98294626 62.63011854 -102 59 C-101.25556641 58.88172852 -100.51113281 58.76345703 -99.74414062 58.64160156 C-61.38143437 52.30159166 -28.29120345 31.01024368 -2 3 C-1.34 2.01 -0.68 1.02 0 0 Z " fill="#5D7B39" transform="translate(367,406)"/>
<path d="M0 0 C0.66 0 1.32 0 2 0 C2.53625 1.0725 3.0725 2.145 3.625 3.25 C6.16209928 7.69442215 9.45939933 10.19770505 14.375 11.75 C14.91125 11.8325 15.4475 11.915 16 12 C14.60177071 16.38777667 12.92766664 20.57670042 11.125 24.8125 C7.76706426 33.01258727 5.68072819 41.3148371 4 50 C3.773125 51.14210938 3.54625 52.28421875 3.3125 53.4609375 C-0.89712957 79.01105031 3.14881242 103.13245278 9 128 C-2.55 128 -14.1 128 -26 128 C-29.01002034 116.12053239 -30.60226604 105.46046244 -30.41162109 93.23071289 C-30.37484811 90.80247037 -30.37060595 88.3757598 -30.37109375 85.94726562 C-30.31368209 72.80606026 -29.36844545 59.87352672 -25.4375 47.25 C-25.18137939 46.41782959 -24.92525879 45.58565918 -24.66137695 44.72827148 C-20.00779306 30.25484838 -13.24689973 17.05809869 -4 5 C-3.29488281 4.05898438 -2.58976562 3.11796875 -1.86328125 2.1484375 C-1.24839844 1.43945312 -0.63351563 0.73046875 0 0 Z " fill="#8C3F0A" transform="translate(245,265)"/>
<path d="M0 0 C5.23880078 0.55145271 9.97350697 1.42922093 15 3 C13.55140315 7.6457958 10.86436233 10.68122233 7.5625 14.125 C6.75244507 14.97976929 6.75244507 14.97976929 5.92602539 15.85180664 C4.81515121 17.01958203 3.70081003 18.18406928 2.58300781 19.34521484 C1.17948161 20.81238027 -0.19748179 22.30485478 -1.5703125 23.80078125 C-30.45273769 54.35820602 -73.05762136 70.61060315 -114.53125 72.35546875 C-151.48664899 73.17695338 -184.83606788 63.02606171 -216.0859375 43.78515625 C-219.77811047 41.41998744 -219.77811047 41.41998744 -224 41 C-225.62573242 39.74658203 -225.62573242 39.74658203 -227.35546875 38.0078125 C-227.97744141 37.38519531 -228.59941406 36.76257813 -229.24023438 36.12109375 C-229.88283203 35.46238281 -230.52542969 34.80367188 -231.1875 34.125 C-232.16879883 33.14853516 -232.16879883 33.14853516 -233.16992188 32.15234375 C-238 27.26686327 -238 27.26686327 -238 25 C-233.15462168 27.20031673 -229.00339896 30.44991272 -224.6796875 33.515625 C-208.60411218 44.55759349 -190.01743512 52.64038526 -171 57 C-170.17161621 57.19319824 -169.34323242 57.38639648 -168.48974609 57.58544922 C-146.73958249 62.46618753 -123.98294626 62.63011854 -102 59 C-101.25556641 58.88172852 -100.51113281 58.76345703 -99.74414062 58.64160156 C-61.38143437 52.30159166 -28.29120345 31.01024368 -2 3 C-1.34 2.01 -0.68 1.02 0 0 Z " fill="#648940" transform="translate(367,406)"/>
<path d="M0 0 C2.32250977 0.3605957 2.32250977 0.3605957 3.32250977 1.3605957 C3.00408713 6.84830491 1.42069431 10.38066635 -1.73999023 14.7355957 C-2.6592675 16.06061123 -3.57573041 17.38758193 -4.48999023 18.71606445 C-5.25182617 19.81700439 -5.25182617 19.81700439 -6.02905273 20.94018555 C-27.93810492 53.10937147 -47.85609288 87.10122186 -66.12036133 121.4387207 C-67.62504663 124.26218788 -69.14467701 127.07719445 -70.66577148 129.8918457 C-95.77938434 176.74789375 -118.58821698 226.41993914 -106.67749023 280.3605957 C-106.03439748 282.3682999 -105.37669786 284.37173846 -104.67749023 286.3605957 C-104.36714541 291.73990605 -104.36714541 291.73990605 -105.67749023 294.3605957 C-108.05249023 294.4855957 -108.05249023 294.4855957 -110.67749023 294.3605957 C-112.91272429 292.12536164 -113.17224277 291.10666052 -113.89624023 288.09887695 C-114.10547119 287.23528564 -114.31470215 286.37169434 -114.53027344 285.48193359 C-114.74385498 284.55501709 -114.95743652 283.62810059 -115.17749023 282.6730957 C-115.39816162 281.71846436 -115.61883301 280.76383301 -115.84619141 279.78027344 C-120.37826081 259.70244644 -121.85972681 239.45756193 -116.67749023 219.3605957 C-116.35495285 217.95224923 -116.03474842 216.54336697 -115.71655273 215.1340332 C-106.3382244 175.16459417 -85.50386028 136.3436496 -65.1809082 100.99584961 C-63.36164827 97.8069747 -61.58942436 94.59398974 -59.82373047 91.37524414 C-49.51683457 72.59758285 -38.11236166 54.46557633 -26.67749023 36.3605957 C-25.98478027 35.26328125 -25.29207031 34.1659668 -24.57836914 33.03540039 C-22.47083054 29.70293042 -20.35673298 26.37472561 -18.23999023 23.0480957 C-17.60222656 22.04109619 -16.96446289 21.03409668 -16.30737305 19.99658203 C-14.4568871 17.099719 -12.57667908 14.22573866 -10.67749023 11.3605957 C-9.99283691 10.31339355 -9.30818359 9.26619141 -8.6027832 8.18725586 C-7.91458496 7.17840332 -7.22638672 6.16955078 -6.51733398 5.13012695 C-5.90108154 4.21465088 -5.2848291 3.2991748 -4.64990234 2.35595703 C-2.67749023 0.3605957 -2.67749023 0.3605957 0 0 Z " fill="#FFC71C" transform="translate(212.677490234375,73.639404296875)"/>
<path d="M0 0 C5.15608274 2.87962357 8.60830916 6.66191913 10.8203125 12.15625 C11.98497849 17.46424103 10.62110833 21.73360608 8.0234375 26.3984375 C5.19132704 30.53626122 1.51086379 32.67223377 -3.1796875 34.15625 C-6.51171875 34.1328125 -6.51171875 34.1328125 -9.9921875 33.78125 C-11.15363281 33.67039062 -12.31507813 33.55953125 -13.51171875 33.4453125 C-14.39214844 33.34992188 -15.27257812 33.25453125 -16.1796875 33.15625 C-16.31246094 33.92839844 -16.44523437 34.70054687 -16.58203125 35.49609375 C-17.50311607 39.59582422 -19.49630979 41.92384645 -22.87109375 44.39453125 C-27.61089622 47.18096058 -31.44450845 47.59492777 -36.8515625 46.765625 C-42.53476886 45.27807434 -45.83240709 41.79094596 -49.1796875 37.15625 C-48.8496875 36.49625 -48.5196875 35.83625 -48.1796875 35.15625 C-47.5196875 35.48625 -46.8596875 35.81625 -46.1796875 36.15625 C-40.25033688 36.74918506 -35.98013198 35.56873988 -31.1796875 32.15625 C-27.61009268 27.67137446 -26.0346222 24.16575537 -26.1171875 18.46875 C-26.12621094 17.66050781 -26.13523437 16.85226563 -26.14453125 16.01953125 C-26.15613281 15.40464844 -26.16773438 14.78976563 -26.1796875 14.15625 C-25.1896875 14.15625 -24.1996875 14.15625 -23.1796875 14.15625 C-23.086875 12.856875 -23.086875 12.856875 -22.9921875 11.53125 C-21.71979283 6.24591828 -18.86290954 3.30390139 -14.4296875 0.28125 C-9.44081263 -1.44566822 -5.00998134 -1.93934762 0 0 Z " fill="#F59219" transform="translate(296.1796875,230.84375)"/>
<path d="M0 0 C0.66 0 1.32 0 2 0 C2.53625 1.0725 3.0725 2.145 3.625 3.25 C6.16209928 7.69442215 9.45939933 10.19770505 14.375 11.75 C14.91125 11.8325 15.4475 11.915 16 12 C14.60177071 16.38777667 12.92766664 20.57670042 11.125 24.8125 C7.76706426 33.01258727 5.68072819 41.3148371 4 50 C3.773125 51.14210938 3.54625 52.28421875 3.3125 53.4609375 C-0.357541 75.73604745 1.36885935 98.98131922 7.44921875 120.65234375 C8 123 8 123 8 127 C4.04 127 0.08 127 -4 127 C-15.45308665 98.36728337 -10.58758297 59.20343825 1.16015625 31.23828125 C2.86065847 26.70624509 2.91589677 21.49274996 1.2421875 16.9375 C-0.66348628 13.45626915 -3.05104474 10.63299577 -6 8 C-5.04956626 6.66102417 -4.08940853 5.32894573 -3.125 4 C-2.59132812 3.2575 -2.05765625 2.515 -1.5078125 1.75 C-0.76144531 0.88375 -0.76144531 0.88375 0 0 Z " fill="#7D3208" transform="translate(245,265)"/>
<path d="M0 0 C5.67458259 1.89152753 9.32628019 5.65256038 12 11 C12.76179378 17.71877134 12.26525499 23.56601694 8 29 C4.04577955 32.74466499 0.31510479 34.29822021 -5.125 34.4375 C-14.25920473 33.8779775 -14.25920473 33.8779775 -17.4375 30.44921875 C-22.00345778 24.3915418 -22.85590271 18.51292376 -22 11 C-17.06875457 1.13750914 -10.24796474 -0.78383866 0 0 Z " fill="#F59219" transform="translate(246,229)"/>
<path d="M0 0 C1.39198114 0.02723206 2.78399129 0.05301785 4.17602539 0.07739258 C46.60315927 0.97815927 46.60315927 0.97815927 58.125 12.5 C58.71727922 18.7781597 58.71727922 18.7781597 56.125 21.9375 C55.465 22.453125 54.805 22.96875 54.125 23.5 C54.11339844 22.89414063 54.10179687 22.28828125 54.08984375 21.6640625 C53.246739 19.11873501 53.246739 19.11873501 49.87890625 18.0859375 C48.48742333 17.66321702 47.08970619 17.26066193 45.6875 16.875 C44.95611816 16.66262695 44.22473633 16.45025391 43.47119141 16.23144531 C27.19047738 11.59009258 11.05799619 11.34829273 -5.75 11.4375 C-7.42057156 11.44253086 -9.0911446 11.44709093 -10.76171875 11.45117188 C-14.79951682 11.46203841 -18.83724132 11.47921319 -22.875 11.5 C-23.205 9.85 -23.535 8.2 -23.875 6.5 C-16.45439947 -0.14621162 -9.60650105 -0.32262521 0 0 Z " fill="#668A3F" transform="translate(176.875,199.5)"/>
<path d="M0 0 C2.85850884 2.1780977 4.87017219 4.18570134 6.85546875 7.17578125 C6.60546875 9.98828125 6.60546875 9.98828125 5.85546875 12.17578125 C1.01250216 12.75981247 -1.67567097 10.8060763 -5.45703125 8.11328125 C-21.11825731 -2.41844049 -40.01041491 -9.61988198 -59.14453125 -7.82421875 C-62.21906685 -7.04782555 -62.21906685 -7.04782555 -64.14453125 -4.82421875 C-66.51033076 -8.27434303 -67.8110544 -10.60290548 -67.14453125 -14.82421875 C-54.45004195 -32.59650376 -12.24797192 -7.85420942 0 0 Z " fill="#668A40" transform="translate(372.14453125,246.82421875)"/>
<path d="M0 0 C22.05801936 13.41588491 36.16280457 36.15022712 48.09375 58.2734375 C49.74375 57.9434375 51.39375 57.6134375 53.09375 57.2734375 C53.12073189 58.89834704 53.14013757 60.52338383 53.15625 62.1484375 C53.16785156 63.05335938 53.17945313 63.95828125 53.19140625 64.890625 C53.09375 67.2734375 53.09375 67.2734375 52.09375 69.2734375 C49.91796875 69.31640625 49.91796875 69.31640625 47.09375 68.2734375 C44.99256264 65.58996449 43.49116003 62.59476543 41.90625 59.5859375 C40.93751253 57.83694181 39.96349163 56.09086273 38.984375 54.34765625 C38.49904297 53.48317871 38.01371094 52.61870117 37.51367188 51.72802734 C25.24523418 30.51983055 6.65744414 12.80750646 -14.90625 1.2734375 C-11.42758678 0.11388309 -8.55623323 0.2734375 -4.90625 0.2734375 C-1.90625 -0.7265625 -1.90625 -0.7265625 0 0 Z " fill="#668A3F" transform="translate(297.90625,263.7265625)"/>
<path d="M0 0 C4.875 4.625 4.875 4.625 6 8 C5.05640625 8.47308594 4.1128125 8.94617188 3.140625 9.43359375 C-19.79477165 21.15205882 -35.23338134 37.30856872 -46.2734375 60.46875 C-47.71929378 63.42588592 -49.25332879 66.21389869 -51 69 C-52.65 68.67 -54.3 68.34 -56 68 C-56 64.7 -56 61.4 -56 58 C-54.35 58 -52.7 58 -51 58 C-50.66959717 57.24662354 -50.66959717 57.24662354 -50.33251953 56.47802734 C-39.54168261 32.13900339 -24.62610921 11.77248148 0 0 Z " fill="#668A40" transform="translate(224,253)"/>
<path d="M0 0 C0.77601563 0.00644531 1.55203125 0.01289063 2.3515625 0.01953125 C4.375 0.1875 4.375 0.1875 6.375 1.1875 C8.05061557 6.21434672 7.95326653 10.47290388 5.8125 15.3125 C3.01730102 20.45366954 -1.1419072 23.3598024 -6.625 25.1875 C-10.30882769 25.31906527 -13.11553585 25.35732138 -16.625 24.1875 C-17.83300667 17.90004362 -18.03305848 12.80221504 -14.625 7.1875 C-10.57035768 2.72512828 -6.06881928 -0.1116338 0 0 Z " fill="#FCA81A" transform="translate(289.625,229.8125)"/>
<path d="M0 0 C1.46953125 -0.03867188 1.46953125 -0.03867188 2.96875 -0.078125 C3.8040625 0.03015625 4.639375 0.1384375 5.5 0.25 C8.21770017 4.32655026 8.24347672 7.46386859 7.5 12.25 C5.49705454 17.34678086 2.40975726 21.19090925 -2.53125 23.62890625 C-6.12258889 24.76188816 -9.81149012 25.04345852 -13.5 24.25 C-15.78150531 22.64012884 -16.40714017 21.73605012 -16.93359375 18.98046875 C-16.9424613 13.20769491 -16.46751707 9.75366803 -12.5 5.25 C-8.15880318 1.42561232 -5.7549104 0.09086701 0 0 Z " fill="#FDA81A" transform="translate(240.5,228.75)"/>
<path d="M0 0 C2.625 0.375 2.625 0.375 5 1 C5.625 3.375 5.625 3.375 6 6 C5.34 6.66 4.68 7.32 4 8 C1.375 7.625 1.375 7.625 -1 7 C-1.625 4.625 -1.625 4.625 -2 2 C-1.34 1.34 -0.68 0.68 0 0 Z " fill="#FFC61C" transform="translate(108,375)"/>
<path d="M0 0 C3.94139078 1.66751148 6.7892812 4.22710649 10 7 C9.67 7.99 9.34 8.98 9 10 C7.86800647 9.0919838 6.74467637 8.17316174 5.625 7.25 C4.99851563 6.73953125 4.37203125 6.2290625 3.7265625 5.703125 C1.91687682 3.91800519 0.99882545 2.32050356 0 0 Z " fill="#708B3D" transform="translate(129,431)"/>
<path d="M0 0 C3.82946843 1.45255699 5.12050295 3.42895561 7 7 C4.13302508 5.71480435 2.02392288 4.42870746 0 2 C0 1.34 0 0.68 0 0 Z " fill="#708336" transform="translate(139,441)"/>
</svg>
